The full show of System of a down playing at Big Day Out from 2002. 
Video info:
Duration: 00:39:42.58, start: 0.000000, bitrate: 2292 kb/s

Stream #0:0: Video: mpeg4 (DX50 / 0x30355844), yuv420p, 352x240 [SAR 1:1 DAR
 22:15], 29.97 fps, 29.97 tbr, 29.97 tbn, 30k tbc

Stream #0:1: Audio: pcm_s16le ([1][0][0][0] / 0x0001), 44100 Hz, 2 channels,
 s16, 1411 kb/s

Tracklist:
1. Ariels
2. Bounce
3. Chop Suey
4. Deer Dance
5. Mind
6. Needles
7. Psycho
8. Sugar
9. Suggestions
10. Suite Pee
11. Toxicity (Followed by Goodbye blue sky)

Enjoy!